<svg xmlns="http://www.w3.org/2000/svg" viewBox="0 0 182.66 204.18"><defs><style>.cls-1,.cls-2{fill:#231f20;}.cls-2{stroke:#231f20;stroke-miterlimit:10;}</style></defs><g id="Layer_2" data-name="Layer 2"><g id="Layer_1-2" data-name="Layer 1"><path class="cls-1" d="M7.24,15q75,.27,149.92.18c9.65,0,9.66-15,0-15Q82.21.18,7.24,0c-9.65,0-9.66,15,0,15Z"/><path class="cls-1" d="M65.66,196.68v-153c0-9.65-15-9.67-15,0v153c0,9.65,15,9.67,15,0Z"/><path class="cls-1" d="M58.16,51.18H99.05c9.65,0,9.67-15,0-15H58.16c-9.66,0-9.67,15,0,15Z"/><path class="cls-1" d="M149.66,7.68v72c0,9.65,15,9.67,15,0v-72c0-9.65-15-9.67-15,0Z"/><path class="cls-1" d="M175.16,99.18h-81c-9.66,0-9.67,15,0,15h81c9.65,0,9.66-15,0-15Z"/><rect class="cls-2" x="85.16" y="61.68" width="36" height="18"/><rect class="cls-2" x="85.16" y="133.68" width="36" height="18"/><path class="cls-1" d="M58.16,204.18h117c9.65,0,9.66-15,0-15h-117c-9.66,0-9.67,15,0,15Z"/><path class="cls-1" d="M167.66,106.68v90c0,9.65,15,9.67,15,0v-90c0-9.65-15-9.67-15,0Z"/></g></g></svg>